<svg width="32" height="32" viewBox="0 0 32 32" fill="none" xmlns="http://www.w3.org/2000/svg">
<path d="M7 6C12.0391 6 16.8718 8.00178 20.435 11.565C23.9982 15.1282 26 19.9609 26 25" stroke="#B5B35C" stroke-width="4" stroke-linecap="round" stroke-linejoin="round"/>
<path d="M7 15C8.31322 15 9.61358 15.2587 10.8268 15.7612C12.0401 16.2638 13.1425 17.0003 14.0711 17.9289C14.9997 18.8575 15.7362 19.9599 16.2388 21.1732C16.7413 22.3864 17 23.6868 17 25" stroke="#B5B35C" stroke-width="4" stroke-linecap="round" stroke-linejoin="round"/>
<path d="M7 28C8.65685 28 10 26.6569 10 25C10 23.3431 8.65685 22 7 22C5.34315 22 4 23.3431 4 25C4 26.6569 5.34315 28 7 28Z" fill="#B5B35C"/>
</svg>
